<?xml version="1.0" standalone="no"?>
<!DOCTYPE svg PUBLIC "-//W3C//DTD SVG 20010904//EN"
 "http://www.w3.org/TR/2001/REC-SVG-20010904/DTD/svg10.dtd">
<svg version="1.0" xmlns="http://www.w3.org/2000/svg"
 width="512.000000pt" height="512.000000pt" viewBox="0 0 512.000000 512.000000"
 preserveAspectRatio="xMidYMid meet">

<g transform="translate(0.000000,512.000000) scale(0.100000,-0.100000)"
fill="#000000" stroke="none">
<path d="M194 4652 c-62 -22 -102 -53 -142 -112 -42 -61 -51 -111 -52 -272 l0
-138 2561 0 2561 0 -4 163 c-3 140 -6 168 -25 209 -29 63 -93 123 -159 148
-55 20 -62 20 -2372 20 -2185 -1 -2320 -2 -2368 -18z m4156 -127 c93 -48 97
-190 7 -245 -31 -20 -61 -20 -1360 -20 -1179 0 -1331 2 -1358 15 -89 47 -93
193 -6 245 31 20 61 20 1360 20 1155 0 1332 -2 1357 -15z m460 -70 l54 -55
-59 -60 c-46 -47 -62 -57 -72 -48 -11 9 -7 18 24 50 l37 38 -93 0 c-83 0 -92
2 -89 18 3 14 17 18 86 22 l83 5 -30 29 c-23 23 -28 33 -20 43 6 7 14 13 18
13 4 0 31 -25 61 -55z m-4105 0 c42 -41 30 -102 -25 -125 -64 -26 -127 35
-101 99 22 53 87 66 126 26z m236 12 c44 -34 47 -89 7 -127 -49 -45 -128 -9
-128 59 0 64 72 105 121 68z"/>
<path d="M1784 4453 c26 -94 42 -133 52 -133 7 0 21 26 32 58 l19 57 17 -57
c9 -32 22 -58 29 -58 7 0 23 31 35 68 25 79 26 85 10 80 -6 -2 -19 -31 -28
-63 l-16 -59 -18 62 c-10 36 -23 62 -30 62 -8 0 -21 -27 -31 -62 l-19 -63 -15
63 c-9 39 -20 62 -28 62 -9 0 -12 -7 -9 -17z"/>
<path d="M2014 4453 c26 -94 42 -133 52 -133 7 0 21 25 31 56 l19 56 17 -56
c10 -31 24 -56 31 -56 13 0 62 138 52 148 -11 11 -24 -13 -38 -68 l-14 -54
-18 62 c-10 36 -23 62 -30 62 -8 0 -21 -27 -31 -62 l-19 -63 -15 63 c-9 39
-20 62 -28 62 -9 0 -12 -7 -9 -17z"/>
<path d="M2240 4463 c0 -26 46 -143 57 -143 7 0 20 26 29 58 l17 57 19 -57
c11 -32 25 -58 32 -58 13 0 61 138 52 148 -11 11 -24 -12 -38 -67 l-14 -54
-18 61 c-11 34 -24 62 -31 62 -6 0 -20 -28 -31 -62 l-20 -63 -13 63 c-9 39
-19 62 -27 62 -8 0 -14 -3 -14 -7z"/>
<path d="M2465 4341 c-3 -5 -1 -12 5 -16 12 -7 30 2 30 16 0 12 -27 12 -35 0z"/>
<path d="M872 2288 l3 -1263 455 0 455 0 3 1263 2 1262 -460 0 -460 0 2 -1262z"/>
<path d="M2100 2285 l0 -1265 460 0 460 0 0 1265 0 1265 -460 0 -460 0 0
-1265z"/>
<path d="M3332 2288 l3 -1263 455 0 455 0 3 1263 2 1262 -460 0 -460 0 2
-1262z"/>
</g>
</svg>
