<?xml version="1.0" encoding="UTF-8"?>
<svg xmlns="http://www.w3.org/2000/svg" xmlns:xlink="http://www.w3.org/1999/xlink" width="340px" height="90px" viewBox="0 0 340 90" version="1.1">
<defs>
<clipPath id="clip1">
  <path d="M 0.0546875 0 L 340 0 L 340 89.839844 L 0.0546875 89.839844 Z M 0.0546875 0 "/>
</clipPath>
<clipPath id="clip2">
  <path d="M 18.839844 18.863281 L 321.273438 18.863281 L 321.273438 54.386719 L 18.839844 54.386719 Z M 18.839844 18.863281 "/>
</clipPath>
<clipPath id="clip3">
  <path d="M 18.839844 60.671875 L 321.273438 60.671875 L 321.273438 70.972656 L 18.839844 70.972656 Z M 18.839844 60.671875 "/>
</clipPath>
</defs>
<g id="surface1">
<g clip-path="url(#clip1)" clip-rule="nonzero">
<path style=" stroke:none;fill-rule:nonzero;fill:rgb(59.215686%,59.215686%,55.294118%);fill-opacity:1;" d="M 0.0273438 89.839844 L 0.0273438 0 L 340.085938 0 L 340.085938 89.839844 Z M 0.0273438 89.839844 "/>
</g>
<path style=" stroke:none;fill-rule:nonzero;fill:rgb(100%,100%,100%);fill-opacity:1;" d="M 3.164062 86.695312 L 3.164062 3.144531 L 336.949219 3.144531 L 336.949219 86.695312 Z M 3.164062 86.695312 "/>
<path style=" stroke:none;fill-rule:nonzero;fill:rgb(59.215686%,59.215686%,55.294118%);fill-opacity:1;" d="M 9.4375 80.410156 L 9.4375 9.429688 L 330.683594 9.429688 L 330.683594 80.410156 Z M 9.4375 80.410156 "/>
<g clip-path="url(#clip2)" clip-rule="nonzero">
<path style=" stroke:none;fill-rule:nonzero;fill:rgb(100%,100%,100%);fill-opacity:1;" d="M 58.417969 40.007812 L 58.472656 38.925781 L 58.015625 38.925781 L 55.351562 54.386719 L 44.578125 54.386719 L 50.820312 18.863281 L 61.585938 18.863281 L 59.035156 33.355469 L 59.492188 33.355469 C 59.792969 32.140625 60.132812 31.234375 60.511719 30.628906 L 67.65625 18.863281 L 79.273438 18.863281 L 68.164062 36.308594 L 73.320312 54.386719 L 61.707031 54.386719 L 58.585938 41.652344 C 58.472656 41.273438 58.417969 40.726562 58.417969 40.007812 Z M 43.335938 51.660156 L 42.878906 54.21875 L 18.847656 51.660156 Z M 45.261719 40.691406 L 44.8125 43.25 L 20.773438 40.691406 Z M 46.222656 35.234375 L 45.773438 37.785156 L 21.734375 35.234375 Z M 47.1875 29.777344 L 46.738281 32.328125 L 22.699219 29.777344 Z M 48.101562 24.320312 L 47.699219 26.875 L 23.667969 24.320312 Z M 44.300781 46.144531 L 43.84375 48.707031 L 19.808594 46.144531 Z M 49.0625 18.863281 L 48.605469 21.417969 L 24.628906 18.863281 Z M 113.628906 54.386719 L 103.707031 54.386719 L 103.480469 49.78125 L 96.339844 49.78125 L 94.585938 54.386719 L 84.773438 54.386719 L 97.359375 24.320312 L 111.421875 24.320312 Z M 99.34375 41.652344 L 103.480469 41.652344 L 103.480469 33.011719 L 102.6875 33.011719 Z M 84.039062 51.660156 L 82.960938 54.160156 L 59.714844 51.660156 Z M 86.363281 46.144531 L 85.289062 48.648438 L 62.042969 46.144531 Z M 88.632812 40.691406 L 87.605469 43.1875 L 64.367188 40.691406 Z M 90.953125 35.234375 L 89.875 37.730469 L 66.695312 35.234375 Z M 93.222656 29.777344 L 92.203125 32.273438 L 69.011719 29.777344 Z M 95.492188 24.320312 L 94.464844 26.761719 L 71.339844 24.320312 Z M 153.710938 54.386719 L 145.996094 54.386719 L 140.164062 43.128906 L 139.929688 43.128906 L 137.949219 54.386719 L 128.425781 54.386719 L 133.640625 24.320312 L 141.351562 24.320312 L 147.246094 35.515625 L 147.582031 35.515625 L 149.515625 24.320312 L 158.96875 24.320312 Z M 127.007812 51.660156 L 126.550781 54.21875 L 102.519531 51.660156 Z M 128.933594 40.691406 L 128.484375 43.25 L 104.445312 40.691406 Z M 129.894531 35.234375 L 129.445312 37.785156 L 105.40625 35.234375 Z M 130.867188 29.777344 L 130.410156 32.328125 L 106.375 29.777344 Z M 131.773438 24.320312 L 131.371094 26.875 L 107.339844 24.320312 Z M 127.972656 46.144531 L 127.519531 48.707031 L 103.480469 46.144531 Z M 191.285156 45.800781 L 184.25 45.800781 L 182.773438 54.386719 L 172.007812 54.386719 L 178.242188 18.863281 L 195.25 18.863281 C 201.679688 18.863281 204.890625 21.851562 204.890625 27.84375 C 204.890625 30.683594 204.488281 33.25 203.695312 35.550781 C 202.902344 37.835938 202.03125 39.65625 201.066406 40.992188 C 200.097656 42.34375 198.777344 43.480469 197.097656 44.402344 C 195.410156 45.335938 193.46875 45.800781 191.285156 45.800781 Z M 185.839844 36.710938 L 188.332031 36.710938 C 189.621094 36.710938 190.597656 36.5625 191.257812 36.273438 C 191.917969 36 192.339844 35.347656 192.527344 34.320312 C 193.019531 31.519531 193.265625 29.980469 193.265625 29.722656 C 193.265625 28.996094 192.984375 28.527344 192.417969 28.292969 C 191.847656 28.070312 190.996094 27.957031 189.867188 27.957031 L 187.371094 27.957031 Z M 170.757812 51.660156 L 170.308594 54.21875 L 146.269531 51.660156 Z M 172.691406 40.691406 L 172.234375 43.25 L 148.195312 40.691406 Z M 174.5625 29.777344 L 174.105469 32.328125 L 150.128906 29.777344 Z M 175.523438 24.320312 L 175.066406 26.875 L 151.089844 24.320312 Z M 171.722656 46.144531 L 171.273438 48.707031 L 147.230469 46.144531 Z M 176.484375 18.863281 L 176.027344 21.417969 L 152.054688 18.863281 Z M 173.597656 35.234375 L 173.140625 37.785156 L 149.164062 35.234375 Z M 235.5 46.035156 L 234.023438 54.386719 L 215.597656 54.386719 L 220.820312 24.320312 L 230.792969 24.320312 L 226.996094 46.035156 Z M 214.1875 51.660156 L 213.730469 54.21875 L 189.695312 51.660156 Z M 216.113281 40.691406 L 215.65625 43.25 L 191.621094 40.691406 Z M 217.074219 35.234375 L 216.625 37.785156 L 192.585938 35.234375 Z M 218.039062 29.777344 L 217.585938 32.328125 L 193.546875 29.777344 Z M 218.945312 24.320312 L 218.550781 26.875 L 194.511719 24.320312 Z M 215.148438 46.144531 L 214.691406 48.707031 L 190.660156 46.144531 Z M 275.917969 54.386719 L 265.996094 54.386719 L 265.773438 49.78125 L 258.625 49.78125 L 256.871094 54.386719 L 247.066406 54.386719 L 259.652344 24.320312 L 273.707031 24.320312 Z M 261.632812 41.652344 L 265.773438 41.652344 L 265.773438 33.011719 L 264.976562 33.011719 Z M 246.328125 51.660156 L 245.246094 54.160156 L 222.007812 51.660156 Z M 248.648438 46.144531 L 247.574219 48.648438 L 224.332031 46.144531 Z M 250.917969 40.691406 L 249.898438 43.1875 L 226.652344 40.691406 Z M 253.242188 35.234375 L 252.167969 37.730469 L 228.980469 35.234375 Z M 255.511719 29.777344 L 254.488281 32.273438 L 231.304688 29.777344 Z M 257.777344 24.320312 L 256.757812 26.761719 L 233.628906 24.320312 Z M 315.996094 54.386719 L 308.285156 54.386719 L 302.445312 43.128906 L 302.222656 43.128906 L 300.242188 54.386719 L 290.710938 54.386719 L 295.925781 24.320312 L 303.640625 24.320312 L 309.539062 35.515625 L 309.875 35.515625 L 311.800781 24.320312 L 321.273438 24.320312 Z M 289.300781 51.660156 L 288.84375 54.21875 L 264.808594 51.660156 Z M 291.226562 40.691406 L 290.769531 43.25 L 266.734375 40.691406 Z M 292.1875 35.234375 L 291.738281 37.785156 L 267.699219 35.234375 Z M 293.148438 29.777344 L 292.699219 32.328125 L 268.660156 29.777344 Z M 294.058594 24.320312 L 293.664062 26.875 L 269.625 24.320312 Z M 290.261719 46.144531 L 289.804688 48.707031 L 265.773438 46.144531 Z M 290.261719 46.144531 "/>
</g>
<g clip-path="url(#clip3)" clip-rule="nonzero">
<path style=" stroke:none;fill-rule:nonzero;fill:rgb(100%,100%,100%);fill-opacity:1;" d="M 21.164062 62.242188 L 22.71875 65.164062 L 24.308594 62.242188 L 23.464844 62.023438 L 23.464844 61.410156 L 26.15625 61.410156 L 26.15625 62.023438 L 25.296875 62.242188 L 23.238281 66.015625 L 23.238281 68.148438 L 24.222656 68.363281 L 24.222656 68.976562 L 20.890625 68.976562 L 20.890625 68.363281 L 21.875 68.148438 L 21.875 66.183594 L 19.710938 62.242188 L 18.839844 62.023438 L 18.839844 61.410156 L 22.042969 61.410156 L 22.042969 62.023438 Z M 38.664062 66.144531 C 38.664062 66.585938 38.601562 67.007812 38.464844 67.410156 C 38.339844 67.800781 38.148438 68.132812 37.910156 68.398438 C 37.679688 68.644531 37.398438 68.820312 37.074219 68.925781 C 36.75 69.03125 36.371094 69.082031 35.9375 69.082031 C 35.507812 69.082031 35.128906 69.03125 34.804688 68.925781 C 34.476562 68.820312 34.199219 68.644531 33.96875 68.398438 C 33.722656 68.132812 33.539062 67.800781 33.40625 67.410156 C 33.28125 67.007812 33.21875 66.585938 33.21875 66.144531 C 33.21875 65.691406 33.28125 65.269531 33.40625 64.871094 C 33.539062 64.46875 33.722656 64.140625 33.96875 63.878906 C 34.199219 63.632812 34.476562 63.464844 34.804688 63.359375 C 35.128906 63.253906 35.507812 63.195312 35.9375 63.195312 C 36.371094 63.195312 36.75 63.253906 37.074219 63.359375 C 37.398438 63.464844 37.679688 63.632812 37.910156 63.878906 C 38.148438 64.140625 38.339844 64.46875 38.464844 64.871094 C 38.601562 65.269531 38.664062 65.691406 38.664062 66.144531 Z M 34.988281 67.957031 C 35.078125 68.097656 35.210938 68.203125 35.367188 68.273438 C 35.523438 68.34375 35.710938 68.378906 35.9375 68.378906 C 36.160156 68.378906 36.351562 68.34375 36.511719 68.273438 C 36.675781 68.203125 36.800781 68.097656 36.890625 67.957031 C 37.117188 67.613281 37.230469 67.007812 37.230469 66.144531 C 37.230469 65.699219 37.203125 65.328125 37.144531 65.023438 C 37.089844 64.722656 37.003906 64.492188 36.890625 64.320312 C 36.800781 64.179688 36.675781 64.074219 36.511719 64.003906 C 36.351562 63.933594 36.160156 63.898438 35.9375 63.898438 C 35.710938 63.898438 35.523438 63.933594 35.367188 64.003906 C 35.210938 64.074219 35.078125 64.179688 34.988281 64.320312 C 34.761719 64.667969 34.652344 65.269531 34.652344 66.144531 C 34.652344 67.007812 34.761719 67.613281 34.988281 67.957031 Z M 46.835938 63.300781 L 48.867188 63.300781 L 48.867188 66.121094 C 48.867188 66.566406 48.875 66.902344 48.894531 67.128906 C 48.914062 67.351562 48.949219 67.527344 48.992188 67.660156 C 49.050781 67.832031 49.140625 67.957031 49.265625 68.046875 C 49.402344 68.132812 49.527344 68.175781 49.660156 68.175781 C 49.851562 68.175781 50.019531 68.148438 50.171875 68.078125 C 50.328125 68.007812 50.476562 67.90625 50.601562 67.789062 C 50.890625 67.527344 51.050781 67.128906 51.082031 66.578125 L 51.082031 64.089844 L 50.167969 63.894531 L 50.167969 63.300781 L 52.410156 63.300781 L 52.410156 68.1875 L 53.214844 68.386719 L 53.214844 68.976562 L 51.277344 69.082031 L 51.15625 67.929688 L 51.121094 67.929688 C 50.917969 68.28125 50.636719 68.5625 50.292969 68.773438 C 49.941406 68.976562 49.570312 69.082031 49.167969 69.082031 C 48.902344 69.082031 48.664062 69.03125 48.445312 68.925781 C 48.21875 68.828125 48.050781 68.6875 47.925781 68.511719 C 47.792969 68.316406 47.691406 68.042969 47.628906 67.683594 C 47.566406 67.324219 47.539062 66.851562 47.539062 66.253906 L 47.539062 64.089844 L 46.835938 63.894531 Z M 64.402344 64.070312 C 64.328125 64.070312 64.242188 64.117188 64.144531 64.210938 C 64.046875 64.308594 63.953125 64.421875 63.875 64.539062 C 63.792969 64.667969 63.734375 64.777344 63.699219 64.878906 C 63.617188 65.117188 63.546875 65.363281 63.484375 65.617188 C 63.417969 65.867188 63.382812 66.179688 63.382812 66.535156 L 63.382812 68.1875 L 64.515625 68.386719 L 64.515625 68.976562 L 61.25 68.976562 L 61.25 68.386719 L 62.054688 68.1875 L 62.054688 63.933594 L 61.25 63.730469 L 61.25 63.300781 L 63.074219 63.300781 L 63.300781 64.6875 L 63.34375 64.6875 C 63.503906 64.214844 63.722656 63.84375 63.996094 63.589844 C 64.269531 63.332031 64.566406 63.195312 64.894531 63.195312 C 65.167969 63.195312 65.394531 63.28125 65.578125 63.457031 C 65.757812 63.625 65.851562 63.859375 65.851562 64.144531 C 65.851562 64.355469 65.789062 64.546875 65.660156 64.714844 C 65.535156 64.882812 65.359375 64.976562 65.128906 64.976562 C 64.847656 64.976562 64.648438 64.90625 64.53125 64.777344 C 64.410156 64.652344 64.347656 64.511719 64.347656 64.355469 C 64.347656 64.308594 64.355469 64.265625 64.355469 64.246094 C 64.363281 64.214844 64.375 64.160156 64.402344 64.070312 Z M 85.703125 63.898438 L 84.980469 64.105469 L 85.871094 67.402344 L 85.96875 68.019531 L 86.027344 68.019531 L 86.136719 67.402344 L 87.226562 63.195312 L 88.304688 63.195312 L 89.421875 67.386719 L 89.527344 68.011719 L 89.566406 68.011719 L 89.695312 67.386719 L 90.542969 64.105469 L 89.863281 63.898438 L 89.863281 63.316406 L 92.167969 63.316406 L 92.167969 63.898438 L 91.597656 64.105469 L 90.085938 69.082031 L 88.695312 69.082031 L 87.605469 65.292969 L 86.546875 69.082031 L 85.15625 69.082031 L 83.59375 64.105469 L 83.039062 63.898438 L 83.039062 63.316406 L 85.703125 63.316406 Z M 105.503906 66.144531 C 105.503906 66.585938 105.433594 67.007812 105.308594 67.410156 C 105.183594 67.800781 104.992188 68.132812 104.746094 68.398438 C 104.515625 68.644531 104.242188 68.820312 103.917969 68.925781 C 103.59375 69.03125 103.214844 69.082031 102.777344 69.082031 C 102.34375 69.082031 101.964844 69.03125 101.640625 68.925781 C 101.316406 68.820312 101.035156 68.644531 100.8125 68.398438 C 100.566406 68.132812 100.375 67.800781 100.25 67.410156 C 100.117188 67.007812 100.050781 66.585938 100.050781 66.144531 C 100.050781 65.691406 100.117188 65.269531 100.25 64.871094 C 100.375 64.46875 100.566406 64.140625 100.8125 63.878906 C 101.035156 63.632812 101.316406 63.464844 101.640625 63.359375 C 101.964844 63.253906 102.34375 63.195312 102.777344 63.195312 C 103.214844 63.195312 103.59375 63.253906 103.917969 63.359375 C 104.242188 63.464844 104.515625 63.632812 104.746094 63.878906 C 104.992188 64.140625 105.183594 64.46875 105.308594 64.871094 C 105.433594 65.269531 105.503906 65.691406 105.503906 66.144531 Z M 101.824219 67.957031 C 101.921875 68.097656 102.046875 68.203125 102.210938 68.273438 C 102.363281 68.34375 102.554688 68.378906 102.777344 68.378906 C 103.003906 68.378906 103.191406 68.34375 103.355469 68.273438 C 103.515625 68.203125 103.644531 68.097656 103.734375 67.957031 C 103.953125 67.613281 104.066406 67.007812 104.066406 66.144531 C 104.066406 65.699219 104.035156 65.328125 103.980469 65.023438 C 103.925781 64.722656 103.839844 64.492188 103.734375 64.320312 C 103.644531 64.179688 103.515625 64.074219 103.355469 64.003906 C 103.191406 63.933594 103.003906 63.898438 102.777344 63.898438 C 102.554688 63.898438 102.363281 63.933594 102.210938 64.003906 C 102.046875 64.074219 101.921875 64.179688 101.824219 64.320312 C 101.597656 64.667969 101.484375 65.269531 101.484375 66.144531 C 101.484375 67.007812 101.597656 67.613281 101.824219 67.957031 Z M 116.882812 64.070312 C 116.804688 64.070312 116.714844 64.117188 116.613281 64.210938 C 116.515625 64.308594 116.433594 64.421875 116.347656 64.539062 C 116.269531 64.667969 116.214844 64.777344 116.179688 64.878906 C 116.09375 65.117188 116.019531 65.363281 115.953125 65.617188 C 115.890625 65.867188 115.863281 66.179688 115.863281 66.535156 L 115.863281 68.1875 L 116.996094 68.386719 L 116.996094 68.976562 L 113.726562 68.976562 L 113.726562 68.386719 L 114.535156 68.1875 L 114.535156 63.933594 L 113.726562 63.730469 L 113.726562 63.300781 L 115.546875 63.300781 L 115.777344 64.6875 L 115.820312 64.6875 C 115.984375 64.214844 116.199219 63.84375 116.46875 63.589844 C 116.742188 63.332031 117.042969 63.195312 117.375 63.195312 C 117.640625 63.195312 117.871094 63.28125 118.054688 63.457031 C 118.230469 63.625 118.324219 63.859375 118.324219 64.144531 C 118.324219 64.355469 118.257812 64.546875 118.140625 64.714844 C 118.011719 64.882812 117.832031 64.976562 117.597656 64.976562 C 117.324219 64.976562 117.121094 64.90625 117 64.777344 C 116.890625 64.652344 116.824219 64.511719 116.824219 64.355469 C 116.824219 64.308594 116.824219 64.265625 116.832031 64.246094 C 116.832031 64.214844 116.855469 64.160156 116.882812 64.070312 Z M 129.566406 68.976562 L 129.566406 68.386719 L 130.183594 68.1875 L 128.800781 66.339844 L 128.214844 66.832031 L 128.214844 68.1875 L 129.019531 68.386719 L 129.019531 68.976562 L 126.074219 68.976562 L 126.074219 68.386719 L 126.882812 68.1875 L 126.882812 61.574219 L 126.074219 61.367188 L 126.074219 60.785156 L 128.214844 60.785156 L 128.214844 66.015625 L 129.996094 64.082031 L 129.453125 63.894531 L 129.453125 63.300781 L 132.019531 63.300781 L 132.019531 63.894531 L 131.097656 64.089844 L 129.65625 65.558594 L 131.617188 68.210938 L 132.171875 68.386719 L 132.171875 68.976562 Z M 140.984375 64.144531 L 139.964844 64.144531 L 139.964844 63.472656 L 140.984375 63.324219 L 140.984375 63.042969 C 140.984375 62.289062 141.1875 61.714844 141.597656 61.296875 C 142.003906 60.882812 142.550781 60.679688 143.242188 60.679688 C 143.648438 60.679688 143.980469 60.777344 144.230469 60.976562 C 144.476562 61.179688 144.597656 61.433594 144.597656 61.742188 C 144.597656 61.960938 144.539062 62.136719 144.429688 62.253906 C 144.308594 62.382812 144.152344 62.445312 143.949219 62.445312 C 143.726562 62.445312 143.558594 62.386719 143.429688 62.277344 C 143.3125 62.164062 143.246094 62.007812 143.246094 61.8125 C 143.246094 61.664062 143.304688 61.539062 143.417969 61.425781 C 143.347656 61.296875 143.242188 61.234375 143.101562 61.234375 C 142.964844 61.234375 142.855469 61.261719 142.761719 61.320312 C 142.621094 61.417969 142.515625 61.539062 142.453125 61.691406 C 142.390625 61.839844 142.347656 62.007812 142.335938 62.199219 C 142.320312 62.382812 142.3125 62.578125 142.3125 62.773438 L 142.3125 63.300781 L 143.65625 63.300781 L 143.65625 64.144531 L 142.3125 64.144531 L 142.3125 68.1875 L 143.445312 68.386719 L 143.445312 68.976562 L 140.175781 68.976562 L 140.175781 68.386719 L 140.984375 68.1875 Z M 151.632812 68.378906 L 152.433594 68.175781 L 152.433594 61.578125 L 151.632812 61.382812 L 151.632812 60.785156 L 153.765625 60.785156 L 153.765625 68.175781 L 154.574219 68.378906 L 154.574219 68.976562 L 151.632812 68.976562 Z M 168.179688 66.144531 C 168.179688 66.585938 168.117188 67.007812 167.992188 67.410156 C 167.855469 67.800781 167.675781 68.132812 167.429688 68.398438 C 167.195312 68.644531 166.921875 68.820312 166.597656 68.925781 C 166.269531 69.03125 165.890625 69.082031 165.460938 69.082031 C 165.023438 69.082031 164.644531 69.03125 164.320312 68.925781 C 164 68.820312 163.71875 68.644531 163.484375 68.398438 C 163.238281 68.132812 163.058594 67.800781 162.929688 67.410156 C 162.796875 67.007812 162.734375 66.585938 162.734375 66.144531 C 162.734375 65.691406 162.796875 65.269531 162.929688 64.871094 C 163.058594 64.46875 163.238281 64.140625 163.484375 63.878906 C 163.71875 63.632812 164 63.464844 164.320312 63.359375 C 164.644531 63.253906 165.023438 63.195312 165.460938 63.195312 C 165.890625 63.195312 166.269531 63.253906 166.597656 63.359375 C 166.921875 63.464844 167.195312 63.632812 167.429688 63.878906 C 167.675781 64.140625 167.855469 64.46875 167.992188 64.871094 C 168.117188 65.269531 168.179688 65.691406 168.179688 66.144531 Z M 164.503906 67.957031 C 164.601562 68.097656 164.730469 68.203125 164.882812 68.273438 C 165.046875 68.34375 165.234375 68.378906 165.460938 68.378906 C 165.679688 68.378906 165.875 68.34375 166.035156 68.273438 C 166.191406 68.203125 166.316406 68.097656 166.410156 67.957031 C 166.632812 67.613281 166.746094 67.007812 166.746094 66.144531 C 166.746094 65.699219 166.71875 65.328125 166.664062 65.023438 C 166.605469 64.722656 166.523438 64.492188 166.410156 64.320312 C 166.316406 64.179688 166.191406 64.074219 166.035156 64.003906 C 165.875 63.933594 165.679688 63.898438 165.460938 63.898438 C 165.234375 63.898438 165.046875 63.933594 164.882812 64.003906 C 164.730469 64.074219 164.601562 64.179688 164.503906 64.320312 C 164.28125 64.667969 164.167969 65.269531 164.167969 66.144531 C 164.167969 67.007812 164.28125 67.613281 164.503906 67.957031 Z M 178.71875 63.898438 L 177.996094 64.105469 L 178.890625 67.402344 L 178.996094 68.019531 L 179.042969 68.019531 L 179.164062 67.402344 L 180.253906 63.195312 L 181.320312 63.195312 L 182.4375 67.386719 L 182.542969 68.011719 L 182.585938 68.011719 L 182.710938 67.386719 L 183.5625 64.105469 L 182.878906 63.898438 L 182.878906 63.316406 L 185.1875 63.316406 L 185.1875 63.898438 L 184.625 64.105469 L 183.113281 69.082031 L 181.714844 69.082031 L 180.625 65.292969 L 179.570312 69.082031 L 178.171875 69.082031 L 176.613281 64.105469 L 176.058594 63.898438 L 176.058594 63.316406 L 178.71875 63.316406 Z M 193.703125 67.578125 C 193.96875 67.578125 194.179688 67.667969 194.34375 67.859375 C 194.503906 68.042969 194.582031 68.292969 194.582031 68.609375 C 194.582031 68.992188 194.460938 69.347656 194.214844 69.695312 C 193.96875 70.03125 193.605469 70.347656 193.105469 70.636719 L 192.78125 70.257812 C 193.035156 70.046875 193.246094 69.847656 193.429688 69.664062 C 193.605469 69.484375 193.695312 69.3125 193.710938 69.167969 L 193.675781 69.132812 C 193.625 69.171875 193.546875 69.195312 193.441406 69.195312 C 193.28125 69.195312 193.140625 69.125 193.035156 68.992188 C 192.921875 68.851562 192.867188 68.660156 192.867188 68.421875 C 192.867188 68.175781 192.945312 67.972656 193.097656 67.816406 C 193.246094 67.65625 193.449219 67.578125 193.703125 67.578125 Z M 218.488281 63.894531 L 217.847656 64.089844 L 216.160156 68.722656 C 215.929688 69.265625 215.726562 69.699219 215.535156 70.03125 C 215.347656 70.367188 215.136719 70.609375 214.910156 70.753906 C 214.683594 70.894531 214.390625 70.972656 214.023438 70.972656 C 213.695312 70.972656 213.414062 70.882812 213.179688 70.714844 C 212.949219 70.539062 212.832031 70.3125 212.832031 70.046875 C 212.832031 69.804688 212.902344 69.601562 213.046875 69.449219 C 213.1875 69.285156 213.378906 69.207031 213.601562 69.207031 C 213.808594 69.207031 213.960938 69.25 214.074219 69.34375 C 214.179688 69.433594 214.234375 69.574219 214.234375 69.757812 C 214.234375 69.828125 214.199219 69.917969 214.125 70.046875 C 214.054688 70.164062 213.925781 70.226562 213.75 70.226562 C 213.765625 70.296875 213.808594 70.347656 213.878906 70.367188 C 213.949219 70.398438 214.011719 70.402344 214.058594 70.402344 C 214.152344 70.402344 214.242188 70.390625 214.328125 70.347656 C 214.410156 70.3125 214.503906 70.222656 214.601562 70.082031 C 214.691406 69.941406 214.789062 69.730469 214.902344 69.441406 L 215.03125 69.046875 L 212.929688 64.089844 L 212.296875 63.894531 L 212.296875 63.300781 L 214.960938 63.300781 L 215.042969 63.894531 L 214.300781 64.089844 L 215.585938 67.738281 L 215.628906 67.738281 L 216.792969 64.089844 L 216.183594 63.894531 L 216.183594 63.300781 L 218.488281 63.300781 Z M 231.773438 66.144531 C 231.773438 66.585938 231.710938 67.007812 231.578125 67.410156 C 231.453125 67.800781 231.261719 68.132812 231.015625 68.398438 C 230.792969 68.644531 230.511719 68.820312 230.1875 68.925781 C 229.863281 69.03125 229.484375 69.082031 229.050781 69.082031 C 228.613281 69.082031 228.242188 69.03125 227.910156 68.925781 C 227.585938 68.820312 227.3125 68.644531 227.082031 68.398438 C 226.835938 68.132812 226.644531 67.800781 226.519531 67.410156 C 226.394531 67.007812 226.324219 66.585938 226.324219 66.144531 C 226.324219 65.691406 226.394531 65.269531 226.519531 64.871094 C 226.644531 64.46875 226.835938 64.140625 227.082031 63.878906 C 227.3125 63.632812 227.585938 63.464844 227.910156 63.359375 C 228.242188 63.253906 228.613281 63.195312 229.050781 63.195312 C 229.484375 63.195312 229.863281 63.253906 230.1875 63.359375 C 230.511719 63.464844 230.792969 63.632812 231.015625 63.878906 C 231.261719 64.140625 231.453125 64.46875 231.578125 64.871094 C 231.710938 65.269531 231.773438 65.691406 231.773438 66.144531 Z M 228.09375 67.957031 C 228.191406 68.097656 228.316406 68.203125 228.480469 68.273438 C 228.632812 68.34375 228.824219 68.378906 229.050781 68.378906 C 229.273438 68.378906 229.464844 68.34375 229.625 68.273438 C 229.785156 68.203125 229.914062 68.097656 230.003906 67.957031 C 230.230469 67.613281 230.335938 67.007812 230.335938 66.144531 C 230.335938 65.699219 230.308594 65.328125 230.257812 65.023438 C 230.203125 64.722656 230.117188 64.492188 230.003906 64.320312 C 229.914062 64.179688 229.785156 64.074219 229.625 64.003906 C 229.464844 63.933594 229.273438 63.898438 229.050781 63.898438 C 228.824219 63.898438 228.632812 63.933594 228.480469 64.003906 C 228.316406 64.074219 228.191406 64.179688 228.09375 64.320312 C 227.875 64.667969 227.761719 65.269531 227.761719 66.144531 C 227.761719 67.007812 227.875 67.613281 228.09375 67.957031 Z M 239.941406 63.300781 L 241.980469 63.300781 L 241.980469 66.121094 C 241.980469 66.566406 241.984375 66.902344 242.007812 67.128906 C 242.027344 67.351562 242.0625 67.527344 242.105469 67.660156 C 242.160156 67.832031 242.253906 67.957031 242.378906 68.046875 C 242.511719 68.132812 242.640625 68.175781 242.773438 68.175781 C 242.960938 68.175781 243.132812 68.148438 243.285156 68.078125 C 243.441406 68.007812 243.582031 67.90625 243.714844 67.789062 C 244.003906 67.527344 244.15625 67.128906 244.183594 66.578125 L 244.183594 64.089844 L 243.277344 63.894531 L 243.277344 63.300781 L 245.519531 63.300781 L 245.519531 68.1875 L 246.328125 68.386719 L 246.328125 68.976562 L 244.390625 69.082031 L 244.269531 67.929688 L 244.226562 67.929688 C 244.023438 68.28125 243.75 68.5625 243.40625 68.773438 C 243.054688 68.976562 242.679688 69.082031 242.28125 69.082031 C 242.015625 69.082031 241.773438 69.03125 241.558594 68.925781 C 241.332031 68.828125 241.15625 68.6875 241.039062 68.511719 C 240.902344 68.316406 240.804688 68.042969 240.742188 67.683594 C 240.679688 67.324219 240.644531 66.851562 240.644531 66.253906 L 240.644531 64.089844 L 239.941406 63.894531 Z M 257.515625 64.070312 C 257.4375 64.070312 257.347656 64.117188 257.25 64.210938 C 257.15625 64.308594 257.066406 64.421875 256.988281 64.539062 C 256.90625 64.667969 256.847656 64.777344 256.8125 64.878906 C 256.730469 65.117188 256.652344 65.363281 256.59375 65.617188 C 256.53125 65.867188 256.496094 66.179688 256.496094 66.535156 L 256.496094 68.1875 L 257.628906 68.386719 L 257.628906 68.976562 L 254.359375 68.976562 L 254.359375 68.386719 L 255.167969 68.1875 L 255.167969 63.933594 L 254.359375 63.730469 L 254.359375 63.300781 L 256.179688 63.300781 L 256.414062 64.6875 L 256.453125 64.6875 C 256.617188 64.214844 256.835938 63.84375 257.109375 63.589844 C 257.375 63.332031 257.675781 63.195312 258.007812 63.195312 C 258.28125 63.195312 258.507812 63.28125 258.6875 63.457031 C 258.871094 63.625 258.964844 63.859375 258.964844 64.144531 C 258.964844 64.355469 258.898438 64.546875 258.773438 64.714844 C 258.648438 64.882812 258.464844 64.976562 258.238281 64.976562 C 257.957031 64.976562 257.761719 64.90625 257.640625 64.777344 C 257.523438 64.652344 257.460938 64.511719 257.460938 64.355469 C 257.460938 64.308594 257.464844 64.265625 257.464844 64.246094 C 257.472656 64.214844 257.488281 64.160156 257.515625 64.070312 Z M 278.816406 63.898438 L 278.089844 64.105469 L 278.976562 67.402344 L 279.082031 68.019531 L 279.136719 68.019531 L 279.25 67.402344 L 280.339844 63.195312 L 281.40625 63.195312 L 282.53125 67.386719 L 282.636719 68.011719 L 282.679688 68.011719 L 282.804688 67.386719 L 283.648438 64.105469 L 282.96875 63.898438 L 282.96875 63.316406 L 285.28125 63.316406 L 285.28125 63.898438 L 284.710938 64.105469 L 283.199219 69.082031 L 281.808594 69.082031 L 280.71875 65.292969 L 279.65625 69.082031 L 278.265625 69.082031 L 276.707031 64.105469 L 276.152344 63.898438 L 276.152344 63.316406 L 278.816406 63.316406 Z M 293.136719 67.738281 C 293.136719 67.15625 293.394531 66.707031 293.929688 66.390625 C 294.457031 66.066406 295.292969 65.820312 296.433594 65.644531 C 296.402344 65.300781 296.367188 65.023438 296.320312 64.835938 C 296.269531 64.644531 296.207031 64.492188 296.128906 64.355469 C 296.039062 64.195312 295.925781 64.0625 295.792969 63.964844 C 295.660156 63.863281 295.496094 63.816406 295.292969 63.816406 C 295.144531 63.816406 295.011719 63.84375 294.886719 63.898438 C 294.765625 63.957031 294.683594 64.035156 294.640625 64.132812 C 294.738281 64.179688 294.808594 64.257812 294.84375 64.363281 C 294.886719 64.46875 294.90625 64.5625 294.90625 64.636719 C 294.90625 64.8125 294.828125 64.96875 294.675781 65.101562 C 294.519531 65.242188 294.335938 65.3125 294.121094 65.3125 C 293.902344 65.3125 293.734375 65.234375 293.605469 65.09375 C 293.480469 64.949219 293.417969 64.773438 293.417969 64.554688 C 293.417969 64.265625 293.515625 64.019531 293.71875 63.816406 C 293.921875 63.617188 294.183594 63.464844 294.492188 63.359375 C 294.808594 63.253906 295.125 63.195312 295.449219 63.195312 C 295.777344 63.195312 296.074219 63.246094 296.332031 63.335938 C 296.59375 63.4375 296.804688 63.554688 296.964844 63.6875 C 297.519531 64.179688 297.796875 64.960938 297.796875 66.023438 L 297.796875 67.386719 C 297.796875 67.730469 297.816406 67.972656 297.867188 68.105469 C 297.90625 68.238281 298.007812 68.300781 298.160156 68.300781 L 298.632812 68.300781 L 298.632812 68.78125 C 297.992188 68.984375 297.507812 69.082031 297.175781 69.082031 C 296.945312 69.082031 296.789062 69.003906 296.71875 68.851562 C 296.644531 68.695312 296.601562 68.394531 296.601562 67.9375 L 296.558594 67.9375 C 296.339844 68.292969 296.058594 68.574219 295.699219 68.78125 C 295.34375 68.984375 294.957031 69.082031 294.546875 69.082031 C 294.105469 69.082031 293.761719 68.960938 293.507812 68.722656 C 293.253906 68.484375 293.136719 68.152344 293.136719 67.738281 Z M 295.1875 68.316406 C 295.335938 68.316406 295.496094 68.265625 295.671875 68.167969 C 295.855469 68.070312 296.011719 67.9375 296.136719 67.761719 C 296.214844 67.660156 296.292969 67.519531 296.363281 67.339844 C 296.433594 67.15625 296.46875 66.9375 296.46875 66.683594 C 296.46875 66.601562 296.460938 66.507812 296.453125 66.402344 C 296.445312 66.296875 296.4375 66.199219 296.425781 66.109375 C 295.941406 66.214844 295.558594 66.324219 295.285156 66.445312 C 295.011719 66.566406 294.816406 66.707031 294.703125 66.867188 C 294.582031 67.035156 294.527344 67.238281 294.527344 67.472656 C 294.527344 67.773438 294.597656 67.992188 294.738281 68.117188 C 294.878906 68.253906 295.027344 68.316406 295.1875 68.316406 Z M 312.074219 63.894531 L 311.433594 64.089844 L 309.75 68.722656 C 309.523438 69.265625 309.3125 69.699219 309.121094 70.03125 C 308.933594 70.367188 308.722656 70.609375 308.496094 70.753906 C 308.273438 70.894531 307.976562 70.972656 307.613281 70.972656 C 307.289062 70.972656 307 70.882812 306.769531 70.714844 C 306.535156 70.539062 306.417969 70.3125 306.417969 70.046875 C 306.417969 69.804688 306.488281 69.601562 306.636719 69.449219 C 306.777344 69.285156 306.964844 69.207031 307.199219 69.207031 C 307.394531 69.207031 307.546875 69.25 307.660156 69.34375 C 307.765625 69.433594 307.824219 69.574219 307.824219 69.757812 C 307.824219 69.828125 307.789062 69.917969 307.710938 70.046875 C 307.640625 70.164062 307.511719 70.226562 307.339844 70.226562 C 307.351562 70.296875 307.394531 70.347656 307.464844 70.367188 C 307.535156 70.398438 307.597656 70.402344 307.648438 70.402344 C 307.746094 70.402344 307.835938 70.390625 307.914062 70.347656 C 308 70.3125 308.089844 70.222656 308.179688 70.082031 C 308.28125 69.941406 308.386719 69.730469 308.492188 69.441406 L 308.617188 69.046875 L 306.515625 64.089844 L 305.882812 63.894531 L 305.882812 63.300781 L 308.546875 63.300781 L 308.632812 63.894531 L 307.886719 64.089844 L 309.171875 67.738281 L 309.214844 67.738281 L 310.378906 64.089844 L 309.769531 63.894531 L 309.769531 63.300781 L 312.074219 63.300781 Z M 319.628906 68.429688 C 319.628906 68.160156 319.707031 67.957031 319.851562 67.800781 C 319.992188 67.65625 320.199219 67.578125 320.449219 67.578125 C 320.695312 67.578125 320.898438 67.65625 321.046875 67.808594 C 321.203125 67.964844 321.273438 68.167969 321.273438 68.421875 C 321.273438 68.675781 321.203125 68.871094 321.054688 69.019531 C 320.90625 69.167969 320.703125 69.238281 320.4375 69.238281 C 320.183594 69.238281 319.988281 69.167969 319.847656 69.03125 C 319.699219 68.890625 319.628906 68.6875 319.628906 68.429688 Z M 319.628906 68.429688 "/>
</g>
</g>
</svg>
